<?xml version="1.0" encoding="UTF-8"?>
<svg xmlns="http://www.w3.org/2000/svg" xmlns:xlink="http://www.w3.org/1999/xlink" width="150px" height="60px" viewBox="0 0 150 150" version="1.1">
<g id="surface1">
<path style=" stroke:none;fill-rule:nonzero;fill:rgb(0%,0%,0%);fill-opacity:1;" d="M 122.460938 25.984375 C 121.140625 26.515625 106.992188 36.738281 106.554688 37.46875 C 106.257812 37.96875 106.054688 38.9375 106.054688 39.785156 C 106.054688 41.398438 105.703125 40.839844 112.765625 50.917969 C 116.164062 55.78125 116.894531 56.632812 117.976562 57.15625 C 120.90625 58.5625 124.070312 56.515625 124.070312 53.234375 C 124.070312 51.828125 123.925781 51.476562 122.078125 48.835938 C 120.96875 47.257812 120.117188 45.878906 120.203125 45.789062 C 120.46875 45.554688 125.710938 48.132812 127.765625 49.511719 C 130.28125 51.210938 134.296875 55.3125 136.085938 57.976562 C 137.84375 60.671875 139.453125 64.367188 140.359375 67.820312 C 140.945312 70.046875 141.035156 71.191406 141.035156 75 C 141.035156 78.808594 140.945312 79.953125 140.359375 82.179688 C 138.835938 88.007812 136.289062 92.519531 132.128906 96.710938 C 127.558594 101.335938 122.519531 104.03125 116.046875 105.320312 C 112.675781 106.023438 105.761719 105.789062 102.390625 104.882812 C 99.40625 104.09375 94.160156 101.515625 91.671875 99.640625 C 87.570312 96.503906 84.023438 91.992188 82 87.335938 C 80.332031 83.40625 79.6875 80.390625 79.394531 74.734375 C 79.101562 69.226562 78.457031 65.65625 77.050781 61.671875 C 72.390625 48.429688 60.410156 38.320312 46.40625 35.890625 C 43.125 35.304688 36.269531 35.304688 32.988281 35.890625 C 18.808594 38.378906 6.945312 48.429688 2.226562 62.023438 C -4.835938 82.414062 5.773438 104.796875 26.046875 112.207031 L 28.210938 113 L 25.515625 114.875 C 23.4375 116.308594 22.703125 117.011719 22.234375 118.007812 C 20.828125 120.90625 22.882812 124.070312 26.191406 124.070312 C 27.6875 124.070312 27.804688 123.984375 35.304688 118.742188 C 39.960938 115.488281 43.125 113.085938 43.445312 112.558594 C 43.742188 112.03125 43.945312 111.09375 43.945312 110.214844 C 43.945312 108.601562 44.296875 109.160156 37.234375 99.082031 C 33.835938 94.21875 33.105469 93.367188 32.023438 92.84375 C 29.09375 91.4375 25.929688 93.484375 25.929688 96.765625 C 25.929688 98.171875 26.074219 98.523438 27.921875 101.164062 C 29.03125 102.742188 29.882812 104.121094 29.796875 104.210938 C 29.53125 104.445312 24.289062 101.867188 22.234375 100.488281 C 19.71875 98.789062 15.703125 94.6875 13.914062 92.023438 C 12.15625 89.328125 10.546875 85.632812 9.640625 82.179688 C 8.640625 78.367188 8.640625 71.632812 9.640625 67.820312 C 11.484375 60.703125 15.46875 54.609375 21.0625 50.359375 C 23.585938 48.457031 28.796875 45.90625 31.933594 45.058594 C 34.101562 44.472656 35.125 44.382812 39.695312 44.382812 C 46.054688 44.382812 48.164062 44.851562 53.171875 47.3125 C 58.390625 49.890625 62.375 53.320312 65.476562 57.976562 C 68.730469 62.929688 70.195312 67.820312 70.605469 75.203125 C 70.929688 81.09375 71.453125 83.992188 72.921875 88.183594 C 77.664062 101.660156 89.472656 111.648438 103.59375 114.109375 C 106.933594 114.695312 113.703125 114.695312 117.070312 114.109375 C 140.890625 109.953125 155.539062 85.460938 147.921875 62.546875 C 145.8125 56.21875 142.765625 51.386719 137.871094 46.640625 C 133.59375 42.480469 128.613281 39.34375 123.664062 37.675781 L 121.789062 37.03125 L 124.484375 35.125 C 126.53125 33.691406 127.296875 32.960938 127.765625 31.992188 C 128.757812 30 128.203125 28.039062 126.210938 26.570312 C 125.449219 25.984375 123.25 25.664062 122.460938 25.984375 Z M 122.460938 25.984375 "/>
<path style=" stroke:none;fill-rule:nonzero;fill:rgb(0%,0%,0%);fill-opacity:1;" d="M 17.578125 66.269531 C 17.023438 66.882812 16.992188 67.265625 16.992188 74.882812 C 16.992188 84.929688 16.726562 84.375 21.445312 84.375 C 25.398438 84.375 26.601562 84.054688 28.417969 82.414062 C 30.320312 80.710938 31.113281 78.78125 31.289062 75.554688 C 31.523438 71.101562 30.085938 68.054688 26.984375 66.445312 C 25.515625 65.683594 25.195312 65.625 21.796875 65.625 C 18.457031 65.625 18.132812 65.683594 17.578125 66.269531 Z M 25.460938 70.632812 C 26.453125 71.570312 26.953125 73.007812 26.953125 75 C 26.953125 78.367188 25.664062 79.980469 22.96875 79.980469 L 21.386719 79.980469 L 21.386719 70.019531 L 23.085938 70.019531 C 24.433594 70.019531 24.929688 70.164062 25.460938 70.632812 Z M 25.460938 70.632812 "/>
<path style=" stroke:none;fill-rule:nonzero;fill:rgb(0%,0%,0%);fill-opacity:1;" d="M 34.980469 66.242188 C 34.453125 66.828125 34.421875 67.414062 34.421875 75.03125 C 34.421875 85.28125 34.015625 84.523438 39.667969 84.523438 C 44.210938 84.523438 44.824219 84.257812 44.824219 82.324219 C 44.824219 80.683594 44.210938 80.304688 41.308594 80.214844 L 38.820312 80.125 L 38.730469 78.78125 L 38.640625 77.429688 L 40.898438 77.285156 C 42.921875 77.140625 43.242188 77.050781 43.859375 76.347656 C 44.679688 75.382812 44.707031 74.707031 43.945312 73.742188 C 43.390625 73.039062 43.09375 72.976562 41.074219 72.890625 L 38.820312 72.804688 L 38.730469 71.453125 L 38.640625 70.109375 L 41.132812 69.960938 C 44.121094 69.8125 44.824219 69.375 44.824219 67.675781 C 44.824219 65.800781 44.355469 65.625 39.640625 65.625 C 35.828125 65.625 35.507812 65.683594 34.980469 66.242188 Z M 34.980469 66.242188 "/>
<path style=" stroke:none;fill-rule:nonzero;fill:rgb(0%,0%,0%);fill-opacity:1;" d="M 48.574219 66.125 C 48.339844 66.414062 48.046875 66.882812 47.960938 67.179688 C 47.695312 67.882812 52.910156 82.882812 53.703125 83.703125 C 54.460938 84.550781 56.308594 84.609375 57.101562 83.820312 C 57.625 83.289062 62.695312 68.640625 62.695312 67.648438 C 62.695312 66.710938 61.523438 65.625 60.527344 65.625 C 59.09375 65.625 58.507812 66.503906 56.984375 71.191406 C 56.21875 73.535156 55.515625 75.554688 55.429688 75.703125 C 55.34375 75.851562 54.550781 73.859375 53.640625 71.28125 C 52.734375 68.703125 51.828125 66.359375 51.59375 66.09375 C 51.0625 65.449219 49.160156 65.476562 48.574219 66.125 Z M 48.574219 66.125 "/>
<path style=" stroke:none;fill-rule:nonzero;fill:rgb(0%,0%,0%);fill-opacity:1;" d="M 90.4375 66.210938 C 88.210938 67.0625 86.570312 68.613281 85.488281 70.839844 C 84.667969 72.507812 84.523438 73.09375 84.523438 75 C 84.523438 76.90625 84.640625 77.492188 85.488281 79.1875 C 87.273438 82.792969 90.410156 84.550781 94.601562 84.316406 C 98.171875 84.109375 100.898438 82.296875 102.453125 79.160156 C 103.15625 77.726562 103.273438 77.140625 103.273438 75 C 103.273438 73.09375 103.125 72.1875 102.65625 71.164062 C 101.75 69.199219 100.109375 67.53125 98.085938 66.503906 C 96.53125 65.742188 95.976562 65.625 94.070312 65.625 C 92.609375 65.65625 91.347656 65.828125 90.4375 66.210938 Z M 96.914062 70.867188 C 99.667969 72.804688 99.667969 77.195312 96.914062 79.132812 C 95.507812 80.15625 92.988281 80.242188 91.40625 79.367188 C 89.734375 78.429688 88.914062 77.023438 88.914062 75 C 88.945312 73.007812 89.648438 71.71875 91.257812 70.722656 C 92.8125 69.757812 95.476562 69.84375 96.914062 70.867188 Z M 96.914062 70.867188 "/>
<path style=" stroke:none;fill-rule:nonzero;fill:rgb(0%,0%,0%);fill-opacity:1;" d="M 106.960938 66.386719 C 106.375 67.148438 106.347656 67.53125 106.347656 75 C 106.347656 82.46875 106.375 82.851562 106.960938 83.613281 C 107.726562 84.578125 109.277344 84.667969 110.15625 83.789062 C 110.65625 83.289062 110.742188 82.820312 110.742188 80.742188 L 110.742188 78.3125 L 112.617188 78.164062 C 114.992188 77.960938 116.71875 77.050781 117.921875 75.351562 C 118.710938 74.179688 118.796875 73.859375 118.796875 71.777344 C 118.796875 69.695312 118.710938 69.375 117.921875 68.234375 C 117.453125 67.558594 116.453125 66.679688 115.75 66.296875 C 114.609375 65.710938 114.054688 65.625 111.007812 65.625 C 107.636719 65.625 107.546875 65.65625 106.960938 66.386719 Z M 114.023438 70.515625 C 114.550781 70.984375 114.726562 72.246094 114.316406 72.832031 C 113.9375 73.390625 112.851562 73.828125 111.796875 73.828125 L 110.742188 73.828125 L 110.742188 70.019531 L 112.117188 70.019531 C 112.96875 70.019531 113.671875 70.195312 114.023438 70.515625 Z M 114.023438 70.515625 "/>
<path style=" stroke:none;fill-rule:nonzero;fill:rgb(0%,0%,0%);fill-opacity:1;" d="M 126.125 66.179688 C 123.925781 67.179688 122.460938 69.757812 122.898438 71.867188 C 123.222656 73.359375 124.394531 74.914062 125.59375 75.4375 C 126.210938 75.703125 127.675781 76.347656 128.875 76.84375 C 131.453125 77.960938 131.921875 78.484375 131.101562 79.394531 C 130.195312 80.390625 127.675781 80.125 125.976562 78.867188 C 124.453125 77.753906 123.925781 77.695312 122.871094 78.601562 C 121.257812 80.007812 122.109375 81.882812 125.070312 83.40625 C 126.621094 84.226562 127.207031 84.375 128.9375 84.375 C 132.15625 84.375 134.238281 83.171875 135.382812 80.710938 C 136.054688 79.277344 136.085938 78.25 135.46875 76.816406 C 134.734375 75.03125 133.445312 73.976562 130.578125 72.804688 C 127.382812 71.484375 126.882812 71.132812 127.441406 70.488281 C 128.027344 69.757812 130.195312 69.902344 131.6875 70.75 C 133.125 71.601562 134.210938 71.515625 134.914062 70.515625 C 135.9375 69.023438 135.03125 67.296875 132.65625 66.210938 C 130.984375 65.449219 127.734375 65.421875 126.125 66.179688 Z M 126.125 66.179688 "/>
</g>
</svg>
