<?xml version="1.0" encoding="UTF-8"?>
<svg xmlns="http://www.w3.org/2000/svg" xmlns:xlink="http://www.w3.org/1999/xlink" width="200px" height="68px" viewBox="0 0 199 68" version="1.1">
<g id="surface1">
<path style=" stroke:none;fill-rule:nonzero;fill:rgb(5.098039%,17.254902%,25.098039%);fill-opacity:1;" d="M 78.984375 45.804688 L 86.980469 46.394531 L 86.980469 53.246094 C 86.980469 53.246094 72.039062 68 50.265625 50.527344 L 57.683594 50.527344 L 58.507812 43.800781 C 58.507812 43.800781 66.976562 52.414062 78.984375 45.804688 Z M 78.984375 45.804688 "/>
<path style=" stroke:none;fill-rule:nonzero;fill:rgb(5.098039%,17.254902%,25.098039%);fill-opacity:1;" d="M 51.902344 14.164062 C 51.902344 14.164062 35.652344 29.335938 48.957031 48.757812 L 56.386719 49.46875 L 57.09375 42.265625 C 57.09375 42.265625 50.265625 31.050781 59.085938 22.195312 L 51.175781 21.582031 Z M 51.902344 14.164062 "/>
<path style=" stroke:none;fill-rule:nonzero;fill:rgb(5.098039%,17.254902%,25.098039%);fill-opacity:1;" d="M 53.667969 13.101562 C 53.667969 13.101562 73.9375 0 89.347656 15.816406 L 82.515625 15.347656 L 81.808594 23.015625 C 81.808594 23.015625 74.039062 13.574219 61.089844 20.894531 L 53.199219 20.542969 Z M 53.667969 13.101562 "/>
<path style=" stroke:none;fill-rule:nonzero;fill:rgb(5.098039%,17.254902%,25.098039%);fill-opacity:1;" d="M 83.578125 24.910156 L 84.046875 17 L 91.230469 17.707031 L 112.894531 41.910156 L 105.480469 41.910156 L 104.773438 48.640625 Z M 83.578125 24.910156 "/>
<path style=" stroke:none;fill-rule:nonzero;fill:rgb(0.784314%,82.745098%,37.254902%);fill-opacity:1;" d="M 80.988281 44.507812 L 108.421875 14.164062 L 115.722656 14.875 L 115.25 22.3125 L 88.289062 52.414062 L 88.402344 44.625 Z M 80.988281 44.507812 "/>
<path style=" stroke:none;fill-rule:nonzero;fill:rgb(0.784314%,82.745098%,37.254902%);fill-opacity:1;" d="M 109.480469 13.074219 L 117.074219 13.695312 L 116.546875 20.957031 C 116.546875 20.957031 127.761719 13.78125 135.976562 21.398438 L 144.007812 21.75 L 144.730469 14.679688 C 144.730469 14.679688 132.179688 0.492188 109.480469 13.074219 Z M 109.480469 13.074219 "/>
<path style=" stroke:none;fill-rule:nonzero;fill:rgb(0.784314%,82.745098%,37.254902%);fill-opacity:1;" d="M 137.125 22.546875 L 145.15625 23.019531 L 145.773438 15.90625 C 145.773438 15.90625 163.347656 35.535156 144.359375 52.414062 L 136.589844 51.875 L 137.300781 43.824219 C 137.300781 43.824219 147.808594 32.023438 137.125 22.546875 Z M 137.125 22.546875 "/>
<path style=" stroke:none;fill-rule:nonzero;fill:rgb(0.784314%,82.745098%,37.254902%);fill-opacity:1;" d="M 114.78125 43.800781 L 106.667969 43.089844 L 106.214844 50.265625 C 106.214844 50.265625 120.609375 66.910156 142.332031 53.628906 L 134.914062 53.027344 L 135.621094 45.320312 C 135.621094 45.320312 126.167969 52.917969 114.78125 43.800781 Z M 114.78125 43.800781 "/>
<path style=" stroke:none;fill-rule:nonzero;fill:rgb(5.098039%,17.254902%,25.098039%);fill-opacity:1;" d="M 125.046875 31.398438 L 125.046875 34.082031 C 125.023438 34.1875 125.011719 34.292969 125.011719 34.402344 C 125.011719 34.507812 125.023438 34.617188 125.046875 34.722656 L 125.046875 39.046875 L 123.042969 39.046875 L 123.042969 31.378906 Z M 125.046875 31.398438 "/>
<path style=" stroke:none;fill-rule:nonzero;fill:rgb(5.098039%,17.254902%,25.098039%);fill-opacity:1;" d="M 126.808594 31.398438 C 126.148438 31.484375 125.53125 31.773438 125.046875 32.230469 C 124.367188 32.757812 123.941406 33.546875 123.871094 34.40625 C 123.929688 35.300781 124.355469 36.132812 125.046875 36.707031 C 125.472656 37.113281 126.023438 37.363281 126.609375 37.414062 C 128.472656 37.460938 129.390625 35.855469 129.390625 34.410156 C 129.390625 32.960938 128.25 31.3125 126.808594 31.398438 Z M 126.199219 35.734375 C 125.628906 35.710938 125.152344 35.289062 125.054688 34.726562 C 125.03125 34.621094 125.019531 34.511719 125.019531 34.40625 C 125.019531 34.296875 125.03125 34.191406 125.054688 34.085938 C 125.152344 33.523438 125.628906 33.101562 126.199219 33.078125 C 126.882812 33.140625 127.40625 33.71875 127.40625 34.40625 C 127.40625 35.09375 126.882812 35.671875 126.199219 35.734375 Z M 133.375 33.6875 C 133.085938 33.59375 132.011719 33.425781 132.011719 33.019531 C 132.011719 32.789062 132.339844 32.761719 132.5 32.769531 C 132.957031 32.769531 133.648438 33.320312 134.027344 33.214844 C 134.371094 33.128906 134.667969 32.246094 134.792969 31.945312 C 133.828125 31.394531 132.703125 31.1875 131.605469 31.363281 C 131.054688 31.46875 130.578125 31.808594 130.300781 32.296875 C 130.023438 32.78125 129.972656 33.367188 130.164062 33.894531 C 130.648438 35.15625 132.140625 34.660156 132.894531 35.429688 C 133.203125 35.75 132.5625 35.894531 132.355469 35.886719 C 131.707031 35.792969 131.089844 35.558594 130.542969 35.199219 C 130.355469 35.464844 129.777344 36.105469 129.84375 36.441406 C 129.914062 36.773438 130.675781 37.023438 130.992188 37.125 C 132.054688 37.46875 133.695312 37.597656 134.496094 36.628906 C 135.492188 35.464844 134.621094 34.09375 133.375 33.6875 Z M 117.8125 29.273438 C 115.488281 29.273438 113.605469 31.164062 113.605469 33.492188 C 113.605469 35.820312 115.488281 37.710938 117.8125 37.710938 C 120.136719 37.710938 122.019531 35.820312 122.019531 33.492188 C 122.019531 31.164062 120.136719 29.273438 117.8125 29.273438 Z M 117.8125 35.644531 C 116.621094 35.640625 115.660156 34.671875 115.660156 33.476562 C 115.660156 32.285156 116.628906 31.316406 117.820312 31.316406 C 119.007812 31.320312 119.972656 32.285156 119.972656 33.480469 C 119.972656 34.054688 119.746094 34.605469 119.339844 35.011719 C 118.933594 35.417969 118.382812 35.644531 117.808594 35.644531 Z M 117.8125 35.644531 "/>
<path style=" stroke:none;fill-rule:nonzero;fill:rgb(0.784314%,82.745098%,37.254902%);fill-opacity:1;" d="M 77.96875 31.300781 L 75.570312 31.300781 L 78.109375 37.953125 L 79.203125 37.953125 L 79.203125 35.117188 Z M 80.4375 31.3125 L 82.835938 31.3125 L 80.296875 37.964844 L 79.203125 37.964844 L 79.203125 35.128906 Z M 66.328125 30.367188 C 65.523438 29.804688 64.589844 29.460938 63.613281 29.363281 C 62.320312 29.238281 60.9375 29.398438 59.738281 29.398438 L 59.738281 37.945312 L 59.796875 37.945312 C 60.027344 37.972656 60.253906 37.992188 60.488281 38.007812 C 61.40625 38.085938 62.332031 38.078125 63.25 37.984375 C 65.003906 37.789062 66.132812 37.21875 66.824219 36.476562 C 67.4375 35.78125 67.785156 34.894531 67.800781 33.96875 L 67.800781 33.65625 C 67.785156 32.441406 67.4375 31.21875 66.328125 30.367188 Z M 64.378906 35.589844 C 63.65625 35.996094 62.777344 35.894531 61.980469 35.894531 L 61.980469 31.445312 C 62.824219 31.445312 63.777344 31.332031 64.519531 31.855469 C 65.75 32.726562 65.707031 34.835938 64.367188 35.589844 Z M 74.519531 36.257812 C 74.324219 36.09375 74.078125 35.8125 73.8125 35.765625 C 73.390625 35.707031 72.867188 36.277344 72.402344 36.320312 C 71.675781 36.394531 71.152344 35.890625 70.871094 35.285156 L 75.292969 35.285156 C 75.292969 34.058594 75.191406 32.765625 74.144531 31.921875 C 72.207031 30.335938 69.023438 31.507812 68.667969 34.011719 C 68.285156 36.652344 70.355469 38.355469 72.875 38.023438 C 73.5 37.9375 74.085938 37.667969 74.566406 37.257812 C 74.738281 37.105469 74.992188 36.894531 74.863281 36.644531 C 74.773438 36.496094 74.65625 36.363281 74.519531 36.257812 Z M 73.109375 34.082031 L 70.851562 34.082031 C 70.953125 33.535156 71.429688 33.140625 71.980469 33.140625 C 72.535156 33.140625 73.007812 33.535156 73.109375 34.082031 Z M 73.109375 34.082031 "/>
</g>
</svg>
