<?xml version="1.0" encoding="UTF-8"?>
<svg xmlns="http://www.w3.org/2000/svg" xmlns:xlink="http://www.w3.org/1999/xlink" width="100px" height="34px" viewBox="0 0 99 34" version="1.1">
<g id="surface1">
<path style=" stroke:none;fill-rule:nonzero;fill:rgb(5.098039%,17.254902%,25.098039%);fill-opacity:1;" d="M 39.292969 22.902344 L 43.273438 23.199219 L 43.273438 26.621094 C 43.273438 26.621094 35.839844 34 25.007812 25.265625 L 28.699219 25.265625 L 29.105469 21.898438 C 29.105469 21.898438 33.320312 26.207031 39.292969 22.902344 Z M 39.292969 22.902344 "/>
<path style=" stroke:none;fill-rule:nonzero;fill:rgb(5.098039%,17.254902%,25.098039%);fill-opacity:1;" d="M 25.820312 7.082031 C 25.820312 7.082031 17.738281 14.667969 24.355469 24.378906 L 28.050781 24.734375 L 28.402344 21.132812 C 28.402344 21.132812 25.007812 15.523438 29.394531 11.097656 L 25.460938 10.789062 Z M 25.820312 7.082031 "/>
<path style=" stroke:none;fill-rule:nonzero;fill:rgb(5.098039%,17.254902%,25.098039%);fill-opacity:1;" d="M 26.699219 6.550781 C 26.699219 6.550781 36.785156 0 44.449219 7.910156 L 41.050781 7.671875 L 40.699219 11.507812 C 40.699219 11.507812 36.832031 6.789062 30.390625 10.449219 L 26.464844 10.269531 Z M 26.699219 6.550781 "/>
<path style=" stroke:none;fill-rule:nonzero;fill:rgb(5.098039%,17.254902%,25.098039%);fill-opacity:1;" d="M 41.578125 12.453125 L 41.8125 8.5 L 45.386719 8.855469 L 56.164062 20.953125 L 52.476562 20.953125 L 52.121094 24.320312 Z M 41.578125 12.453125 "/>
<path style=" stroke:none;fill-rule:nonzero;fill:rgb(0.784314%,82.745098%,37.254902%);fill-opacity:1;" d="M 40.289062 22.253906 L 53.9375 7.082031 L 57.570312 7.4375 L 57.335938 11.15625 L 43.921875 26.207031 L 43.980469 22.3125 Z M 40.289062 22.253906 "/>
<path style=" stroke:none;fill-rule:nonzero;fill:rgb(0.784314%,82.745098%,37.254902%);fill-opacity:1;" d="M 54.464844 6.535156 L 58.242188 6.847656 L 57.980469 10.476562 C 57.980469 10.476562 63.558594 6.890625 67.644531 10.699219 L 71.640625 10.875 L 72 7.339844 C 72 7.339844 65.757812 0.246094 54.464844 6.535156 Z M 54.464844 6.535156 "/>
<path style=" stroke:none;fill-rule:nonzero;fill:rgb(0.784314%,82.745098%,37.254902%);fill-opacity:1;" d="M 68.21875 11.273438 L 72.210938 11.507812 L 72.519531 7.953125 C 72.519531 7.953125 81.261719 17.769531 71.816406 26.207031 L 67.953125 25.9375 L 68.304688 21.910156 C 68.304688 21.910156 73.53125 16.011719 68.21875 11.273438 Z M 68.21875 11.273438 "/>
<path style=" stroke:none;fill-rule:nonzero;fill:rgb(0.784314%,82.745098%,37.254902%);fill-opacity:1;" d="M 57.101562 21.898438 L 53.066406 21.546875 L 52.839844 25.132812 C 52.839844 25.132812 60 33.457031 70.808594 26.8125 L 67.117188 26.511719 L 67.46875 22.660156 C 67.46875 22.660156 62.769531 26.460938 57.101562 21.898438 Z M 57.101562 21.898438 "/>
<path style=" stroke:none;fill-rule:nonzero;fill:rgb(5.098039%,17.254902%,25.098039%);fill-opacity:1;" d="M 62.207031 15.699219 L 62.207031 17.042969 C 62.195312 17.09375 62.191406 17.148438 62.191406 17.199219 C 62.191406 17.253906 62.195312 17.308594 62.207031 17.363281 L 62.207031 19.523438 L 61.210938 19.523438 L 61.210938 15.691406 Z M 62.207031 15.699219 "/>
<path style=" stroke:none;fill-rule:nonzero;fill:rgb(5.098039%,17.254902%,25.098039%);fill-opacity:1;" d="M 63.085938 15.699219 C 62.757812 15.742188 62.449219 15.886719 62.207031 16.113281 C 61.871094 16.378906 61.660156 16.773438 61.625 17.203125 C 61.652344 17.648438 61.867188 18.066406 62.207031 18.351562 C 62.421875 18.554688 62.695312 18.679688 62.988281 18.707031 C 63.914062 18.730469 64.371094 17.925781 64.371094 17.203125 C 64.371094 16.480469 63.804688 15.65625 63.085938 15.699219 Z M 62.78125 17.867188 C 62.5 17.855469 62.261719 17.644531 62.210938 17.363281 C 62.199219 17.308594 62.195312 17.257812 62.195312 17.203125 C 62.195312 17.148438 62.199219 17.09375 62.210938 17.042969 C 62.261719 16.761719 62.5 16.550781 62.78125 16.539062 C 63.125 16.570312 63.382812 16.859375 63.382812 17.203125 C 63.382812 17.546875 63.125 17.835938 62.78125 17.867188 Z M 66.351562 16.84375 C 66.207031 16.796875 65.671875 16.714844 65.671875 16.511719 C 65.671875 16.394531 65.835938 16.382812 65.917969 16.386719 C 66.144531 16.386719 66.488281 16.660156 66.679688 16.609375 C 66.847656 16.5625 66.996094 16.121094 67.058594 15.972656 C 66.578125 15.695312 66.019531 15.59375 65.472656 15.683594 C 65.199219 15.734375 64.960938 15.90625 64.824219 16.148438 C 64.6875 16.390625 64.660156 16.683594 64.753906 16.949219 C 64.996094 17.578125 65.738281 17.332031 66.113281 17.714844 C 66.265625 17.875 65.949219 17.949219 65.84375 17.945312 C 65.523438 17.894531 65.214844 17.777344 64.941406 17.597656 C 64.847656 17.734375 64.5625 18.054688 64.597656 18.21875 C 64.628906 18.386719 65.007812 18.511719 65.167969 18.5625 C 65.695312 18.734375 66.511719 18.800781 66.910156 18.3125 C 67.40625 17.730469 66.972656 17.046875 66.351562 16.84375 Z M 58.609375 14.636719 C 57.453125 14.636719 56.519531 15.582031 56.519531 16.746094 C 56.519531 17.910156 57.453125 18.855469 58.609375 18.855469 C 59.765625 18.855469 60.703125 17.910156 60.703125 16.746094 C 60.703125 15.582031 59.765625 14.636719 58.609375 14.636719 Z M 58.609375 17.820312 C 58.019531 17.820312 57.539062 17.335938 57.539062 16.738281 C 57.539062 16.140625 58.019531 15.660156 58.613281 15.660156 C 59.207031 15.660156 59.6875 16.144531 59.6875 16.738281 C 59.6875 17.027344 59.570312 17.304688 59.371094 17.507812 C 59.167969 17.710938 58.894531 17.824219 58.609375 17.820312 Z M 58.609375 17.820312 "/>
<path style=" stroke:none;fill-rule:nonzero;fill:rgb(0.784314%,82.745098%,37.254902%);fill-opacity:1;" d="M 38.789062 15.652344 L 37.597656 15.652344 L 38.859375 18.976562 L 39.402344 18.976562 L 39.402344 17.558594 Z M 40.015625 15.65625 L 41.210938 15.65625 L 39.945312 18.980469 L 39.402344 18.980469 L 39.402344 17.566406 Z M 32.996094 15.183594 C 32.597656 14.902344 32.132812 14.730469 31.648438 14.679688 C 31.003906 14.621094 30.316406 14.699219 29.71875 14.699219 L 29.71875 18.972656 L 29.746094 18.972656 C 29.863281 18.984375 29.976562 18.996094 30.09375 19.003906 C 30.550781 19.042969 31.007812 19.039062 31.464844 18.992188 C 32.339844 18.894531 32.902344 18.609375 33.246094 18.238281 C 33.550781 17.890625 33.722656 17.445312 33.730469 16.984375 L 33.730469 16.828125 C 33.722656 16.21875 33.550781 15.609375 32.996094 15.183594 Z M 32.027344 17.792969 C 31.667969 17.996094 31.230469 17.949219 30.835938 17.949219 L 30.835938 15.722656 C 31.253906 15.722656 31.730469 15.667969 32.097656 15.925781 C 32.710938 16.363281 32.6875 17.417969 32.023438 17.792969 Z M 37.074219 18.128906 C 36.976562 18.046875 36.851562 17.90625 36.722656 17.882812 C 36.511719 17.855469 36.25 18.136719 36.019531 18.160156 C 35.65625 18.199219 35.398438 17.945312 35.257812 17.644531 L 37.457031 17.644531 C 37.457031 17.03125 37.40625 16.382812 36.886719 15.960938 C 35.921875 15.167969 34.339844 15.753906 34.160156 17.007812 C 33.972656 18.324219 35 19.175781 36.253906 19.011719 C 36.566406 18.96875 36.859375 18.835938 37.097656 18.628906 C 37.179688 18.550781 37.308594 18.445312 37.246094 18.320312 C 37.199219 18.246094 37.140625 18.183594 37.074219 18.128906 Z M 36.371094 17.042969 L 35.25 17.042969 C 35.296875 16.769531 35.535156 16.570312 35.808594 16.570312 C 36.085938 16.570312 36.320312 16.769531 36.371094 17.042969 Z M 36.371094 17.042969 "/>
</g>
</svg>
